<?xml version="1.0" encoding="UTF-8" standalone="no"?>
<svg
   version="2.0"
   width="59.73938"
   height="64"
   standalone="no"
   id="svg7"
   xmlns:xlink="http://www.w3.org/1999/xlink"
   xmlns="http://www.w3.org/2000/svg"
   xmlns:svg="http://www.w3.org/2000/svg">
  <defs>
    <linearGradient id="gradient5">
      <stop style="stop-color:#912a6e;stop-opacity:1;" offset="0" id="stop5" />
      <stop
         style="stop-color:#c54c80;stop-opacity:1;"
         offset="1"
         id="stop6" />
    </linearGradient>
    <linearGradient
       xlink:href="#gradient5"
       id="linearGradient6"
       x1="455.67349"
       y1="566.5061"
       x2="523.38208"
       y2="395.35352"
       gradientUnits="userSpaceOnUse" />
    <linearGradient
       xlink:href="#linearGradient9"
       id="linearGradient24-0"
       x1="21.245571"
       y1="62.074139"
       x2="45.494331"
       y2="99.540298"
       gradientUnits="userSpaceOnUse"
       gradientTransform="matrix(0.47351268,0,0,0.47351268,2.0880097,1.4731076)" />
    <linearGradient
       id="linearGradient9">
      <stop
         style="stop-color:#c8367e;stop-opacity:1;"
         offset="0"
         id="stop8" />
      <stop
         style="stop-color:#cc357c;stop-opacity:1;"
         offset="1"
         id="stop9" />
    </linearGradient>
    <linearGradient
       xlink:href="#gradient5"
       id="linearGradient2"
       gradientUnits="userSpaceOnUse"
       x1="455.67349"
       y1="566.5061"
       x2="523.38208"
       y2="395.35352" />
  </defs>
  <path
     style="fill:#d15787;fill-opacity:1;stroke:none;stroke-width:0.136629;stroke-dasharray:none;stroke-opacity:1"
     d="M 30.434925,2.1339398 2.1810304,14.125577 29.203846,41.598492 58.053618,15.207284 Z"
     id="path1" />
  <path
     style="fill:#ffe0b2;stroke:none;stroke-width:0.144922"
     d="M 22.931807,5.0269323 49.423587,18.418598 42.023137,22.045133 15.323893,8.8268437 Z"
     id="path2" />
  <path
     style="fill:#c63c6b;fill-opacity:1;stroke:none;stroke-width:0.136629;stroke-dasharray:none;stroke-opacity:1"
     d="M 57.319584,15.059284 29.242797,26.249416 29.05166,62.156422 57.701199,49.855521 Z"
     id="path3" />
  <path
     style="fill:#9a3256;fill-opacity:1;stroke:none;stroke-width:0.136629;stroke-dasharray:none;stroke-opacity:1"
     d="m 2.5514894,14.379977 26.8062056,11.830074 0.067,35.6766 L 2.0086781,49.429813 Z"
     id="path4" />
  <g
     style="fill:none;fill-opacity:1;stroke:url(#linearGradient6);stroke-width:26.6834;stroke-dasharray:none;stroke-opacity:1"
     transform="matrix(0.1449215,0,0,0.1449215,-42.631566,-40.532559)"
     id="g6">
    <path
       fill="none"
       stroke-width="3.0"
       stroke-linecap="butt"
       stroke-opacity="1.0"
       stroke="rgb(0, 0, 0)"
       stroke-linejoin="round"
       d="m 686.87,628.413 0.28,-0.152 0.384,-0.228 0.262,-0.168 0.359,-0.24 0.245,-0.18 0.331,-0.249 0.23,-0.192 0.302,-0.252 0.279,-0.259 0.212,-0.199 0.251,-0.257 0.202,-0.211 0.223,-0.254 0.195,-0.225 0.198,-0.249 0.189,-0.242 0.187,-0.262 0.171,-0.24 0.181,-0.281 0.148,-0.233 0.176,-0.3 0.126,-0.227 0.17,-0.323 0.106,-0.221 0.164,-0.345 0.155,-0.367 0.087,-0.218 0.145,-0.39 0.069,-0.215 0.133,-0.415 0.117,-0.434 0.052,-0.219 0.101,-0.454 0.079,-0.468 0.035,-0.225 0.059,-0.482 0.035,-0.486 0.016,-0.235 0.012,-0.49 v -10 -10 -10 -10 -10 -10 -10 -10 -10 -10 -10 -10 -10 -10 -10 -10 -10 -10 -10 -10 -10 -10 -8.816 l -0.012,-0.486 -0.007,-0.235 -0.035,-0.483 -0.027,-0.231 -0.057,-0.475 -0.08,-0.466 -0.045,-0.225 -0.099,-0.45 -0.119,-0.434 -0.062,-0.223 -0.133,-0.414 -0.082,-0.226 -0.146,-0.392 -0.158,-0.371 -0.101,-0.229 -0.168,-0.349 -0.121,-0.234 -0.177,-0.329 -0.183,-0.306 -0.144,-0.242 -0.19,-0.288 -0.168,-0.246 -0.197,-0.271 -0.192,-0.25 -0.205,-0.255 -0.217,-0.253 -0.214,-0.241 -0.244,-0.254 -0.224,-0.228 -0.272,-0.254 -0.236,-0.216 -0.3,-0.251 -0.251,-0.204 -0.327,-0.244 -0.268,-0.192 -0.353,-0.234 -0.286,-0.179 -0.375,-0.218 -0.304,-0.163 -0.39,-0.198 -9.042,-4.271 -9.042,-4.271 -9.042,-4.271 -9.042,-4.271 -9.042,-4.272 -9.042,-4.271 -9.041,-4.271 -9.042,-4.271 -9.042,-4.271 -9.042,-4.272 -9.042,-4.271 -9.042,-4.271 -9.042,-4.271 -9.042,-4.272 -9.042,-4.271 -9.042,-4.271 -9.042,-4.271 -9.042,-4.271 -9.042,-4.272 -3.487,-1.647 -0.319,-0.144 -0.358,-0.157 -0.323,-0.123 -0.364,-0.136 -0.329,-0.103 -0.368,-0.113 -0.335,-0.085 -0.369,-0.091 -0.344,-0.066 -0.368,-0.069 -0.353,-0.047 -0.366,-0.046 -0.362,-0.029 -0.362,-0.023 -0.373,-0.009 -0.354,-0.002 -0.383,0.013 -0.347,0.019 -0.389,0.035 -0.338,0.039 -0.394,0.058 -0.328,0.058 -0.396,0.081 -0.319,0.077 -0.394,0.104 -0.312,0.095 -0.389,0.127 -0.306,0.115 -0.38,0.147 -9.221,3.87 -9.221,3.87 -9.22,3.87 -9.221,3.87 -9.221,3.87 -9.221,3.871 -9.22,3.87 -9.221,3.87 -9.221,3.87 -9.221,3.87 -9.22,3.87 -9.221,3.87 -9.221,3.871 -9.221,3.87 -9.22,3.87 -9.221,3.87 -9.221,3.87 -9.221,3.87 -9.22,3.87 -10.761,4.517 -0.414,0.186 -0.296,0.135 -0.399,0.208 -0.281,0.153 -0.381,0.225 -0.263,0.168 -0.358,0.239 -0.247,0.181 -0.331,0.248 -0.232,0.193 -0.303,0.253 -0.28,0.26 -0.214,0.2 -0.251,0.258 -0.204,0.213 -0.223,0.254 -0.197,0.227 -0.197,0.249 -0.191,0.243 -0.188,0.264 -0.17,0.24 -0.182,0.282 -0.147,0.232 -0.177,0.302 -0.125,0.226 -0.171,0.324 -0.105,0.219 -0.164,0.346 -0.155,0.368 -0.086,0.215 -0.145,0.391 -0.068,0.212 -0.133,0.414 -0.116,0.434 -0.053,0.215 -0.099,0.454 -0.08,0.468 -0.035,0.224 -0.059,0.483 -0.035,0.488 -0.016,0.233 -0.012,0.494 v 10 10 10 10 10 10 10 10 10 10 10 10 10 10 10 10 10 10 10 10 10 10 8.815 l 0.012,0.489 0.006,0.234 0.036,0.484 0.027,0.23 0.057,0.474 0.08,0.466 0.045,0.222 0.098,0.45 0.118,0.433 0.062,0.22 0.132,0.414 0.081,0.222 0.146,0.393 0.158,0.372 0.099,0.226 0.169,0.351 0.12,0.232 0.177,0.332 0.185,0.309 0.143,0.24 0.192,0.29 0.167,0.246 0.199,0.273 0.191,0.251 0.207,0.257 0.218,0.254 0.215,0.242 0.245,0.256 0.226,0.229 0.272,0.255 0.239,0.216 0.299,0.251 0.253,0.205 0.327,0.244 0.269,0.192 0.351,0.232 0.286,0.179 0.371,0.215 0.304,0.163 0.386,0.196 9.042,4.271 9.042,4.271 9.042,4.272 9.042,4.271 9.042,4.271 9.042,4.271 9.042,4.271 9.042,4.272 9.042,4.271 9.042,4.271 9.042,4.271 9.042,4.271 9.042,4.272 9.042,4.271 9.042,4.271 9.042,4.271 9.041,4.272 9.042,4.271 9.042,4.271 3.488,1.647 0.319,0.144 0.356,0.157 0.325,0.123 0.365,0.136 0.331,0.104 0.37,0.114 0.339,0.086 0.372,0.091 0.348,0.067 0.371,0.068 0.358,0.048 0.367,0.045 0.367,0.028 0.362,0.023 0.375,0.008 0.352,10e-4 0.384,-0.014 0.342,-0.02 0.388,-0.035 0.333,-0.039 0.391,-0.059 0.324,-0.057 0.392,-0.081 0.316,-0.076 0.391,-0.104 0.31,-0.094 0.387,-0.126 0.305,-0.115 0.382,-0.147 9.221,-3.871 9.22,-3.87 9.221,-3.87 9.221,-3.87 9.221,-3.87 9.22,-3.87 9.221,-3.87 9.221,-3.87 9.22,-3.871 9.221,-3.87 9.221,-3.87 9.221,-3.87 9.22,-3.87 9.221,-3.87 9.221,-3.87 9.221,-3.871 9.22,-3.87 9.221,-3.87 9.221,-3.87 11.1175,-4.678 z"
       id="path5"
       style="fill:none;fill-opacity:1;stroke:url(#linearGradient2);stroke-width:26.6834;stroke-dasharray:none;stroke-opacity:1" />
  </g>
  <path
     d="m 11.711464,46.976324 c 0,0 1.054967,0.611616 2.433506,1.152522 0.564553,0.221512 2.741976,1.050298 4.40703,1.452399 0,0 2.07255,0.512987 3.201957,0.596465 1.196653,0.08846 1.854953,-0.01324 2.154327,-0.464881 -0.01257,-0.127978 0.09378,-0.510028 -0.46403,-1.033833 -1.410258,-1.324275 -3.022296,-1.963375 -6.127336,-3.497445 -3.319224,-1.690006 -4.391205,-2.826035 -4.955256,-3.596632 -0.536992,-0.761926 -0.254043,-2.054365 2.104201,-2.25978 1.212112,-0.14219 6.118297,0.726107 6.118297,0.726107 -1.674684,-1.656847 -4.712902,-4.564698 -5.324043,-5.166297 -0.532351,-0.524048 -1.377475,-1.327407 -1.556198,-1.948526 -0.202815,-0.607671 0.497364,-0.77751 0.889981,-0.74956 1.27642,0.0872 3.107901,0.551705 4.807005,1.197852 0.86647,0.329507 1.008214,0.322972 1.008214,0.322972 1.212354,0.256547 2.022801,-0.355667 1.692752,-1.958927 -0.294115,-1.613285 -1.860309,-3.073389 -3.329133,-3.316701 -1.361591,-0.225552 -4.563035,-0.362743 -4.563035,-0.362743 3.96657,1.464105 4.647839,1.799394 4.951312,2.398411 0.179767,0.354837 -0.08604,0.644707 -1.174177,0.425294 -1.16974,-0.235878 -3.55166,-0.903052 -3.55166,-0.903052 -2.224716,-0.713946 -3.757103,-1.302426 -4.221192,-0.342964 -0.3020516,0.624454 0.304285,1.529081 0.57047,2.051648 1.137151,1.981482 2.819723,3.510476 3.920495,4.588278 0.417945,0.409235 1.658026,1.37876 1.658026,1.37876 -3.601612,-1.774258 -6.120791,-1.598136 -7.5718836,-0.79666 -1.6150736,1.062585 -0.9317063,3.506743 2.3964976,6.404579 2.030777,1.768169 3.056664,2.640623 6.228516,3.837016 1.922509,0.804801 2.228902,1.022638 2.247377,1.21276 0.026,0.26778 -2.145278,-0.153549 -2.729225,-0.244636 -1.468621,-0.229082 -5.204494,-1.098026 -5.222795,-1.102426 z"
     style="fill:url(#linearGradient24-0);fill-opacity:1;fill-rule:evenodd;stroke:#000000;stroke-width:0;stroke-linecap:butt;stroke-linejoin:miter;stroke-miterlimit:4;stroke-dasharray:none;stroke-opacity:1"
     id="path6" />
  <path
     style="fill:#e7c58a;fill-opacity:1;stroke:#e7c58a;stroke-width:0.147965;stroke-opacity:1"
     d="m 41.033117,21.522468 8.064007,-3.112193 0.0048,10.94421 -1.462211,-1.566823 -2.045123,3.59121 -2.529532,-3.163219 -2.03155,4.64867 z"
     id="path7" />
</svg>
